<?xml version="1.0" standalone="no"?>
<!DOCTYPE svg PUBLIC "-//W3C//DTD SVG 20010904//EN"
 "http://www.w3.org/TR/2001/REC-SVG-20010904/DTD/svg10.dtd">
<svg version="1.0" xmlns="http://www.w3.org/2000/svg"
 width="400.000000pt" height="400.000000pt" viewBox="0 0 400.000000 400.000000"
 preserveAspectRatio="xMidYMid meet">
<metadata>
Created by potrace 1.14, written by Peter Selinger 2001-2017
</metadata>
<g transform="translate(0.000000,400.000000) scale(0.100000,-0.100000)"
fill="#000000" stroke="none">
<path d="M1066 3721 c-2 -3 -2 -294 -2 -646 1 -352 -2 -648 -6 -657 -5 -10
-26 -22 -48 -28 -23 -6 -38 -15 -35 -20 4 -6 0 -10 -7 -10 -33 0 -88 -22 -82
-32 4 -6 3 -8 -3 -5 -11 7 -96 -17 -88 -25 5 -5 -20 -14 -69 -24 -11 -2 -22
-8 -26 -14 -3 -5 -15 -11 -25 -13 -65 -14 -82 -20 -82 -33 0 -18 32 -18 50 1
12 11 17 12 20 2 4 -9 6 -9 6 1 1 6 6 12 12 12 5 0 7 -6 3 -12 -4 -7 1 -5 12
4 10 9 33 20 49 24 17 4 43 14 60 22 16 8 39 16 50 16 12 1 19 8 17 16 -3 11
-1 12 8 4 9 -9 18 -8 38 2 15 8 32 14 38 14 6 0 24 6 40 14 72 35 67 53 68
-262 1 -156 -2 -289 -5 -294 -4 -6 -18 -8 -35 -4 -82 21 -200 14 -239 -14 -5
-4 -26 -11 -45 -15 -19 -4 -44 -13 -55 -19 -11 -7 -43 -19 -72 -26 -29 -8 -50
-17 -48 -21 3 -4 -15 -10 -40 -13 -25 -4 -45 -12 -45 -17 0 -6 -24 -9 -55 -8
-30 1 -55 6 -55 11 0 4 -17 8 -37 8 -27 0 -34 -3 -24 -9 11 -7 5 -11 -21 -16
-20 -4 -39 -14 -42 -22 -3 -8 -10 -11 -16 -8 -5 3 -10 1 -10 -4 0 -6 -7 -11
-15 -11 -25 0 -17 26 12 41 16 8 32 20 36 27 5 7 12 10 17 7 4 -3 10 2 14 10
4 12 -4 15 -43 15 l-49 0 -25 -52 c-14 -29 -29 -65 -32 -80 -4 -15 -13 -32
-20 -38 -8 -7 -17 -33 -21 -58 -3 -26 -11 -53 -17 -60 -6 -8 -13 -23 -14 -35
-2 -12 -11 -32 -19 -45 -12 -18 -12 -22 -3 -17 11 6 12 5 2 -6 -7 -7 -13 -24
-13 -38 0 -18 3 -22 9 -13 6 10 10 8 13 -10 3 -12 9 -31 13 -40 6 -15 2 -18
-29 -18 -20 0 -36 -4 -36 -10 0 -10 21 -14 49 -11 7 2 10 -2 7 -7 -3 -5 29
-15 74 -22 44 -7 80 -16 80 -20 0 -4 36 -13 80 -21 43 -7 77 -15 75 -19 -2 -3
4 -6 13 -7 52 -3 122 -17 122 -23 0 -13 59 -17 71 -6 9 8 10 8 5 -1 -4 -7 -4
-14 1 -14 4 -1 21 -3 37 -5 16 -2 32 -7 35 -11 3 -5 35 -15 71 -22 36 -7 66
-17 68 -22 2 -5 8 -9 13 -9 6 0 7 6 3 13 -6 9 -4 9 8 -1 9 -7 33 -15 54 -17
22 -2 39 -4 39 -5 0 -2 38 -11 53 -12 6 -1 12 -5 12 -9 0 -4 33 -13 73 -19 39
-7 77 -16 82 -20 6 -4 25 -10 43 -13 27 -6 31 -4 20 6 -12 12 -113 37 -151 38
-9 0 -15 4 -13 8 3 4 -24 14 -59 21 -35 7 -62 16 -60 20 2 3 -6 7 -18 7 -51 4
-146 27 -141 35 3 4 -3 9 -13 9 -10 1 -27 3 -38 5 -11 2 -39 6 -62 10 -24 4
-43 10 -43 14 0 4 -21 10 -46 14 -26 3 -52 10 -58 15 -6 5 -29 12 -51 15 -22
4 -57 9 -77 13 -24 3 -38 11 -38 20 0 8 -4 12 -9 9 -5 -3 -11 8 -14 24 -4 16
-16 39 -28 51 -18 18 -28 20 -70 15 -42 -6 -49 -4 -59 15 -17 32 -8 193 12
197 8 1 20 -8 27 -22 11 -19 11 -31 1 -60 -8 -27 -9 -40 -1 -50 6 -7 8 -16 4
-19 -3 -4 1 -7 9 -7 11 0 17 13 21 42 3 24 10 44 15 46 6 2 23 14 39 28 15 13
31 24 36 24 4 0 6 5 5 12 -2 7 12 17 30 23 18 6 30 14 26 18 -3 3 7 9 22 13
16 4 35 11 42 17 8 7 21 6 38 -2 14 -6 23 -7 19 -2 -3 6 3 10 12 10 10 0 38 2
63 5 25 2 92 7 150 11 58 3 109 10 115 16 5 5 14 9 20 9 5 0 3 -5 -5 -10 -12
-7 -10 -9 7 -7 12 0 19 5 17 9 -3 4 3 8 13 8 10 0 57 3 106 7 84 5 87 5 87
-16 0 -11 5 -21 10 -21 6 0 10 -5 10 -11 0 -5 -6 -7 -12 -3 -10 6 -10 4 -2 -7
6 -8 15 -41 19 -74 4 -33 11 -62 15 -65 4 -3 11 -23 14 -44 10 -59 18 -89 31
-111 7 -11 16 -37 19 -58 4 -20 11 -37 15 -37 5 0 14 -14 20 -30 5 -17 8 -30
6 -30 -3 0 7 -16 20 -36 13 -19 27 -44 30 -55 4 -10 11 -19 16 -19 6 0 8 -4 4
-9 -3 -5 5 -17 17 -25 12 -9 18 -16 13 -16 -5 0 -4 -5 3 -12 17 -17 15 -31 -3
-25 -8 4 -17 2 -20 -2 -2 -5 6 -11 20 -13 13 -3 22 -2 20 3 -3 4 -1 10 5 14 5
3 10 0 10 -8 0 -8 11 -25 25 -38 13 -13 25 -29 25 -36 0 -6 9 -15 20 -18 11
-4 18 -9 16 -13 -2 -4 2 -13 10 -20 8 -7 14 -9 15 -5 0 4 4 -2 9 -14 5 -13 16
-23 24 -23 8 0 18 -9 21 -20 4 -11 10 -18 15 -15 5 3 15 -3 22 -13 16 -22 123
-102 137 -102 6 0 14 -6 18 -14 4 -7 25 -19 46 -25 20 -7 35 -17 32 -22 -4 -5
3 -9 14 -9 11 0 23 -4 26 -10 3 -5 15 -10 26 -10 10 0 19 -4 19 -10 0 -5 16
-12 35 -16 20 -3 33 -9 30 -13 -6 -5 73 -31 103 -33 6 -1 12 -5 12 -9 0 -4 33
-13 74 -20 41 -7 73 -16 70 -21 -3 -4 5 -8 18 -9 13 0 37 -2 53 -5 17 -2 118
-6 225 -8 211 -4 365 8 353 27 -4 7 2 5 12 -3 11 -9 16 -10 11 -2 -5 8 0 12
13 13 12 1 24 2 29 3 4 1 28 5 55 10 26 4 47 11 47 15 0 5 27 14 61 21 34 7
55 16 48 20 -7 5 6 11 30 15 22 4 41 11 41 15 0 5 17 14 38 21 20 6 40 17 44
23 4 6 11 11 15 12 12 1 47 17 53 23 9 11 98 71 104 71 4 0 22 16 41 35 19 19
35 32 35 28 0 -3 11 6 25 21 13 14 29 26 35 26 6 0 9 4 6 8 -3 5 16 9 42 9 73
2 81 6 28 12 l-50 6 25 27 c53 60 69 80 69 89 0 6 4 8 8 5 5 -3 15 10 22 29 7
19 17 32 22 29 4 -3 9 0 9 5 1 6 2 16 3 22 0 6 9 16 19 23 9 7 17 21 17 30 0
9 5 16 10 16 6 0 10 6 10 13 0 7 9 30 20 52 11 22 20 45 20 52 0 7 5 13 10 13
6 0 10 9 10 19 0 11 7 27 16 35 12 12 12 16 2 16 -11 0 -11 2 0 9 8 4 16 26
19 47 3 22 8 40 13 42 4 1 5 14 2 27 -2 14 0 25 6 25 11 0 22 56 29 155 3 39
9 74 14 80 5 5 9 455 9 1080 l0 1071 -1460 0 c-804 1 -1462 -2 -1464 -5z"/>
<path d="M525 2196 c-26 -8 -34 -15 -25 -19 10 -4 8 -6 -7 -7 -13 -2 -26 -4
-30 -5 -5 -1 -23 -6 -40 -10 -18 -4 -30 -11 -28 -16 3 -4 -10 -11 -30 -15 -19
-3 -35 -10 -35 -14 0 -11 -47 -26 -85 -29 -15 -1 -17 -3 -7 -10 10 -6 2 -11
-25 -16 -21 -4 -57 -15 -80 -26 -23 -10 -47 -19 -54 -19 -7 0 -10 -2 -7 -5 8
-9 108 17 102 27 -3 4 5 8 18 8 13 0 46 11 74 24 28 13 65 27 83 31 17 3 31
11 31 16 0 5 5 9 11 9 5 0 30 9 53 20 24 11 62 22 86 26 28 5 37 10 28 15 -10
7 -9 9 5 9 9 0 17 5 17 10 0 12 -3 12 -55 -4z"/>
<path d="M36 1988 c3 -4 9 -8 15 -8 5 0 9 4 9 8 0 5 -7 9 -15 9 -8 0 -12 -4
-9 -9z"/>
<path d="M8 1973 c7 -3 16 -2 19 1 4 3 -2 6 -13 5 -11 0 -14 -3 -6 -6z"/>
<path d="M1210 866 c0 -2 7 -7 16 -10 8 -3 12 -2 9 4 -6 10 -25 14 -25 6z"/>
<path d="M3748 703 c12 -2 32 -2 45 0 12 2 2 4 -23 4 -25 0 -35 -2 -22 -4z"/>
<path d="M3833 703 c9 -2 23 -2 30 0 6 3 -1 5 -18 5 -16 0 -22 -2 -12 -5z"/>
</g>
</svg>
